Coordinates
version=1
nRows=27
nColumns=12
inDegrees=yes

Units are S.I. units (second, meters, Newtons, ...)
Angles are in degrees

endheader
time	SC_y	SC_z	SC_x	AC_y	AC_z	AC_x	GH_y	GH_z	GH_yy	EL_x	PS_y
       0.0              -45.53          13.59         0.5592          55.44         -2.871          11.24          69.47          26.83          64.52          57.02          104.9
   0.04056              -45.53          13.59         0.5591          55.44         -2.873          11.24          69.49          26.83          64.49          57.02          104.9
   0.08112              -45.53          13.59         0.5591          55.44         -2.874          11.24           69.5          26.83          64.45          57.01          104.9
    0.1217              -45.53           13.6         0.5591          55.43         -2.876          11.23          69.51          26.83          64.42          57.01          104.9
    0.1622              -45.53           13.6          0.559          55.43         -2.878          11.23          69.53          26.83          64.38           57.0          104.9
    0.2028              -45.53          13.61          0.559          55.43          -2.88          11.23          69.55          26.83          64.33          56.99          104.9
    0.2433              -45.53          13.61         0.5589          55.42         -2.882          11.23          69.56          26.83          64.29          56.99          104.9
    0.2839              -45.53          13.61         0.5589          55.42         -2.885          11.23          69.58          26.82          64.24          56.98          104.9
    0.3245              -45.53          13.62         0.5588          55.41         -2.887          11.22           69.6          26.82          64.19          56.97          104.9
     0.365              -45.53          13.62         0.5588          55.41          -2.89          11.22          69.62          26.82          64.14          56.96          104.9
    0.4056              -45.53          13.63         0.5587          55.41         -2.892          11.22          69.65          26.82          64.08          56.95          104.9
    0.4461              -45.53          13.64         0.5587           55.4         -2.895          11.22          69.67          26.82          64.01          56.94          104.9
    0.4867              -45.53          13.64         0.5586          55.39         -2.899          11.21           69.7          26.82          63.94          56.93          104.9
    0.5273              -45.53          13.65         0.5585          55.39         -2.902          11.21          69.72          26.82          63.87          56.92          104.9
    0.5678              -45.53          13.66         0.5584          55.38         -2.906          11.21          69.76          26.81          63.79           56.9          104.9
    0.6084              -45.53          13.67         0.5583          55.37          -2.91           11.2          69.79          26.81           63.7          56.89          104.9
    0.6489              -45.52          13.67         0.5582          55.37         -2.915           11.2          69.83          26.81          63.61          56.87          104.9
    0.6895              -45.52          13.68         0.5581          55.36          -2.92          11.19          69.87          26.81          63.51          56.86          104.9
      0.73              -45.52          13.69          0.558          55.35         -2.925          11.19          69.91          26.81          63.39          56.84          104.9
    0.7706              -45.52          13.71         0.5579          55.34         -2.931          11.18          69.96           26.8          63.27          56.82          104.9
    0.8112              -45.52          13.72         0.5578          55.33         -2.937          11.17          70.01           26.8          63.14           56.8          104.9
    0.8517              -45.52          13.73         0.5576          55.31         -2.944          11.17          70.06           26.8          62.99          56.77          104.9
    0.8923              -45.52          13.75         0.5575           55.3         -2.952          11.16          70.13          26.79          62.82          56.75          104.9
    0.9328              -45.51          13.77         0.5573          55.28         -2.961          11.15           70.2          26.79          62.64          56.72          104.9
    0.9734              -45.51          13.79         0.5571          55.27          -2.97          11.14          70.28          26.79          62.44          56.68          104.9
     1.014              -45.51          13.81         0.5568          55.25         -2.981          11.13          70.36          26.78          62.21          56.65          104.9
     1.055              -45.51          13.83         0.5566          55.23         -2.993          11.12          70.46          26.78          61.96          56.61          104.9
